<svg width="31" height="29" viewBox="0 0 31 29" fill="none" xmlns="http://www.w3.org/2000/svg">
<path fill-rule="evenodd" clip-rule="evenodd" d="M14.9345 3.75243C15.0508 3.86876 15.1631 3.98758 15.2715 4.10871L15.5122 3.86797L15.5391 3.89488C15.7115 3.68689 15.8951 3.48508 16.09 3.29024C19.4722 -0.0919874 24.9559 -0.0919874 28.3381 3.29024C31.7203 6.67246 31.7203 12.1561 28.3381 15.5384C28.1432 15.7332 27.9414 15.9168 27.7334 16.0892L27.7603 16.1161L15.7433 28.1331L15.2811 28.5953L3.26407 16.5783L3.29097 16.5514C3.08299 16.379 2.88118 16.1954 2.68635 16.0006C-0.695875 12.6183 -0.695875 7.13466 2.68635 3.75243C6.06857 0.370208 11.5522 0.370207 14.9345 3.75243Z" fill="#FF81A6"/>
</svg>
